<?xml version="1.0" standalone="no"?>
<!DOCTYPE svg PUBLIC "-//W3C//DTD SVG 20010904//EN"
 "http://www.w3.org/TR/2001/REC-SVG-20010904/DTD/svg10.dtd">
<svg version="1.0" xmlns="http://www.w3.org/2000/svg"
 width="300.000000pt" height="300.000000pt" viewBox="0 0 300.000000 300.000000"
 preserveAspectRatio="xMidYMid meet">

<g transform="translate(0.000000,300.000000) scale(0.100000,-0.100000)"
fill="#000000" stroke="none">
<path d="M1345 2829 c-4 -6 -21 -9 -39 -8 -31 3 -55 -4 -141 -39 -53 -22 -179
-147 -204 -203 -12 -24 -26 -52 -33 -61 -10 -14 -10 -25 1 -54 9 -26 10 -39 2
-47 -15 -15 -14 -37 5 -58 8 -9 17 -29 18 -44 2 -14 16 -40 32 -56 l29 -31
-28 7 c-39 10 -74 -16 -83 -61 -13 -72 36 -164 89 -164 21 0 25 -6 31 -41 12
-74 56 -150 133 -228 40 -41 71 -75 70 -76 -1 -1 -37 -7 -79 -13 -150 -22
-246 -70 -356 -176 -68 -65 -105 -122 -146 -226 -15 -36 -31 -73 -37 -84 -8
-14 -6 -23 10 -40 19 -21 20 -24 5 -81 -32 -120 -37 -325 -10 -389 32 -78 101
-126 179 -126 26 0 27 -2 27 -52 0 -29 -7 -98 -15 -153 -17 -121 -18 -135 -5
-135 6 0 10 13 10 29 0 17 9 45 19 63 14 24 21 62 27 136 3 56 9 104 13 106
15 8 602 -32 618 -43 6 -3 24 -34 41 -67 22 -44 48 -75 91 -110 59 -48 60 -50
60 -101 1 -29 6 -53 11 -53 6 0 11 6 12 13 0 6 2 17 3 22 2 6 3 20 4 33 1 16
7 22 26 22 13 0 43 7 66 17 36 14 46 25 70 79 26 57 29 75 30 176 0 62 6 151
12 197 l12 83 49 18 c26 11 50 21 52 23 3 2 -2 66 -11 142 -36 322 -42 336
-221 461 -136 94 -139 97 -147 138 -4 26 4 38 77 110 68 68 86 92 108 151 15
39 31 98 34 133 7 60 8 62 35 62 44 0 57 31 55 127 -1 62 -6 86 -19 100 -19
21 -22 50 -7 73 5 8 5 19 0 25 -10 12 -7 77 4 116 8 27 -8 87 -38 144 -9 17
-16 33 -16 37 0 4 -14 27 -30 52 -39 57 -119 92 -169 73 -24 -9 -39 -8 -68 2
-20 8 -56 15 -80 16 -23 1 -46 4 -49 8 -4 4 -21 7 -38 7 -17 1 -42 7 -56 15
-30 17 -37 18 -45 4z m120 -49 c17 -4 49 -8 72 -9 23 -1 55 -8 70 -16 33 -17
57 -19 83 -5 32 17 96 -16 130 -66 17 -23 30 -47 30 -52 0 -5 7 -23 15 -38 8
-16 15 -36 15 -44 0 -8 7 -24 15 -34 19 -25 19 -50 2 -65 -10 -8 -12 -24 -7
-58 9 -54 0 -90 -30 -133 -20 -28 -21 -38 -15 -128 9 -120 -8 -238 -42 -307
-28 -53 -138 -175 -159 -175 -7 0 -29 -13 -47 -30 -19 -16 -37 -30 -41 -30 -3
0 -6 15 -6 34 0 18 -5 47 -11 65 -9 26 -16 31 -45 31 -39 0 -54 -21 -54 -74 0
-47 -20 -47 -115 -1 -83 39 -188 143 -228 223 -26 50 -50 139 -45 163 3 14
-10 15 -49 4 -47 -15 -89 74 -61 132 10 21 21 28 43 30 17 0 36 2 43 2 19 2
14 30 -13 65 -14 18 -25 39 -25 47 0 8 -7 24 -15 37 -19 27 -26 149 -9 163 7
5 10 19 7 30 -3 12 2 29 14 42 11 12 26 32 32 45 6 12 18 22 26 22 8 0 15 7
15 15 0 20 68 68 127 89 26 9 56 21 66 27 9 5 27 7 40 4 12 -3 34 -2 47 3 25
10 70 7 125 -8z m454 -562 c4 -13 11 -47 14 -75 5 -46 3 -54 -16 -68 -30 -21
-34 -19 -39 20 -3 26 -1 34 9 31 17 -7 26 10 18 35 -4 11 -13 18 -20 15 -17
-6 -28 34 -13 51 16 20 38 16 47 -9z m-400 -525 c13 -26 25 -138 23 -223 -2
-77 4 -130 16 -130 4 0 6 35 4 79 -4 82 7 121 34 121 14 0 15 -12 10 -87 -4
-61 -2 -104 8 -138 16 -61 12 -94 -21 -159 l-25 -49 21 -84 c12 -47 44 -133
71 -192 72 -159 96 -237 125 -413 9 -58 29 -48 21 10 l-6 49 35 10 35 11 0
-46 c-1 -91 -57 -169 -127 -179 -37 -5 -41 -2 -93 54 -130 140 -240 447 -240
667 0 54 -7 74 -60 181 -74 148 -79 170 -50 230 18 38 26 45 51 45 18 0 32 7
39 21 9 15 19 20 43 17 l31 -3 -4 50 c-8 90 -5 142 9 159 18 21 38 20 50 -1z
m-270 -93 c-25 -48 -19 -87 18 -125 27 -26 27 -26 9 -57 -26 -43 -15 -116 29
-200 19 -37 35 -72 35 -78 0 -6 11 -28 25 -48 23 -34 25 -45 25 -155 0 -79 5
-137 16 -174 9 -30 14 -56 12 -58 -5 -5 -132 22 -187 40 -120 39 -222 64 -281
70 -36 3 -76 8 -89 11 l-24 5 6 137 c4 112 12 162 41 277 20 77 39 148 42 158
3 9 1 17 -4 17 -13 0 -60 -122 -86 -221 -12 -46 -26 -85 -31 -86 -10 -2 -146
36 -153 42 -7 6 38 118 76 190 47 90 118 161 209 208 120 63 181 80 300 86
l33 1 -21 -40z m43 -30 c-3 -36 0 -57 13 -76 23 -35 13 -40 -20 -11 -21 17
-28 32 -27 56 1 27 24 81 36 81 2 0 1 -22 -2 -50z m152 -14 c10 -37 7 -46 -19
-46 -13 0 -33 -10 -45 -22 l-20 -22 -26 26 c-25 25 -26 28 -15 76 l12 49 54
-19 c36 -14 55 -27 59 -42z m176 15 c0 -15 -5 -18 -21 -14 -12 4 -25 0 -30 -8
-7 -11 -9 -10 -9 4 0 10 8 17 19 17 11 0 23 5 26 10 9 15 15 12 15 -9z m163
-160 c79 -48 118 -88 153 -155 23 -43 28 -71 38 -206 l12 -157 -81 2 c-44 2
-118 6 -164 10 l-83 8 6 51 c3 28 9 74 12 101 5 38 4 47 -5 39 -7 -6 -15 -43
-18 -82 -3 -40 -10 -72 -14 -72 -5 0 -9 8 -9 19 0 10 -7 42 -17 70 -16 51 -16
52 10 117 30 72 33 112 12 198 -11 46 -12 70 -3 107 l11 48 36 -28 c20 -16 66
-47 104 -70z m-977 -346 c-3 -11 -8 -54 -11 -95 -7 -75 8 -138 35 -155 10 -6
342 -89 520 -130 l75 -17 20 -61 c11 -34 21 -68 23 -76 3 -11 -18 -12 -115 -8
-214 8 -587 37 -624 47 -36 10 -44 22 -88 133 -16 40 -14 186 4 296 22 135 20
132 100 107 57 -17 65 -23 61 -41z m1092 -199 c1 -2 -4 -46 -12 -97 -8 -52
-14 -84 -15 -73 -2 36 -26 47 -86 41 l-55 -6 -35 69 c-19 37 -32 69 -30 72 4
4 228 -2 233 -6z m87 -10 c19 -13 18 -15 -15 -23 -36 -10 -46 -3 -36 22 7 19
27 19 51 1z m-145 -145 c0 -9 -16 -17 -62 -31 -30 -9 -44 1 -34 25 6 17 96 22
96 6z m10 -45 c0 -17 -79 -41 -92 -28 -7 7 5 17 33 30 46 20 59 20 59 -2z m16
-47 c10 -17 -10 -30 -55 -36 -34 -5 -41 -3 -41 11 0 28 81 49 96 25z m4 -67
c0 -11 -11 -24 -25 -30 -31 -14 -55 -15 -55 -3 0 5 -3 16 -6 24 -6 16 11 24
59 26 20 1 27 -4 27 -17z"/>
<path d="M1285 2750 c-3 -5 -1 -10 4 -10 6 0 11 5 11 10 0 6 -2 10 -4 10 -3 0
-8 -4 -11 -10z"/>
<path d="M1353 2753 c-21 -8 -15 -22 7 -16 16 4 19 2 14 -11 -5 -12 0 -16 20
-16 14 0 26 4 26 10 0 5 -7 7 -16 3 -11 -4 -15 -1 -12 13 3 19 -16 27 -39 17z"/>
<path d="M1504 2739 c-4 -8 1 -9 16 -4 19 6 22 4 17 -9 -5 -11 -1 -16 13 -16
25 0 26 16 1 30 -25 13 -38 13 -47 -1z"/>
<path d="M1174 2705 c-18 -14 -17 -15 14 -13 18 1 32 8 32 15 0 17 -22 16 -46
-2z"/>
<path d="M1665 2710 c-3 -5 4 -10 16 -10 18 0 19 -2 9 -15 -11 -13 -8 -15 19
-15 l31 0 -22 25 c-23 26 -43 32 -53 15z"/>
<path d="M1257 2683 c-13 -12 -7 -25 6 -14 8 6 17 8 20 4 4 -3 7 -1 7 5 0 13
-22 16 -33 5z"/>
<path d="M1042 2597 c-12 -13 -20 -26 -16 -29 6 -6 54 35 54 46 0 13 -17 5
-38 -17z"/>
<path d="M1812 2598 c8 -12 21 -24 29 -27 12 -4 12 -2 1 12 -8 9 -11 21 -7 27
3 6 -3 10 -16 10 -20 0 -20 -2 -7 -22z"/>
<path d="M1127 2593 c-14 -14 -6 -25 9 -12 13 10 17 10 25 -2 7 -11 9 -11 9 4
0 17 -30 24 -43 10z"/>
<path d="M1849 2510 c-5 -24 -3 -60 3 -60 15 0 20 28 9 47 -6 10 -11 16 -12
13z"/>
<path d="M995 2468 c-10 -25 -3 -49 11 -34 6 6 8 20 3 31 -6 18 -8 18 -14 3z"/>
<path d="M1656 2351 c-12 -18 3 -31 35 -31 17 0 39 -5 50 -10 24 -13 25 2 1
23 -24 21 -77 33 -86 18z"/>
<path d="M1020 2326 c0 -15 18 -31 26 -23 7 7 -7 37 -17 37 -5 0 -9 -6 -9 -14z"/>
<path d="M1268 2314 c-33 -21 -58 -51 -58 -69 0 -4 15 6 33 21 19 16 42 34 52
39 10 6 16 16 14 22 -2 6 -19 1 -41 -13z"/>
<path d="M1657 2203 c-16 -15 -6 -34 15 -31 29 4 38 38 10 38 -10 0 -22 -3
-25 -7z"/>
<path d="M1520 2176 c0 -32 38 -154 50 -161 21 -13 8 -34 -27 -45 -75 -24 -66
-46 10 -23 58 17 60 33 17 125 -16 34 -30 78 -30 96 0 17 -4 32 -10 32 -5 0
-10 -11 -10 -24z"/>
<path d="M1310 2176 c0 -19 25 -27 39 -13 18 18 13 27 -14 27 -15 0 -25 -6
-25 -14z"/>
<path d="M970 2122 c0 -4 13 -15 29 -25 34 -20 55 -5 25 18 -21 16 -54 20 -54
7z"/>
<path d="M1605 1840 c-3 -5 -26 -10 -50 -10 -24 0 -67 -9 -95 -20 -28 -11 -62
-20 -75 -20 -13 0 -27 -4 -30 -10 -11 -17 51 -11 105 10 28 11 69 20 91 20 42
0 79 14 79 30 0 13 -17 13 -25 0z"/>
<path d="M1517 1772 c-26 -2 -45 -7 -42 -13 8 -13 82 -12 90 2 9 14 7 14 -48
11z"/>
<path d="M2205 2365 c-83 -30 -100 -104 -32 -140 l38 -20 20 28 c27 35 76 37
107 4 46 -49 14 -92 -75 -102 -80 -9 -101 -21 -115 -68 -10 -32 -9 -40 3 -48
23 -14 89 -11 89 5 0 9 18 16 51 20 76 10 155 43 184 77 20 25 25 41 25 84 0
74 -36 116 -123 144 -90 29 -127 33 -172 16z m145 -31 c78 -23 130 -77 130
-133 0 -23 -5 -51 -10 -62 -18 -33 -89 -62 -165 -67 -70 -5 -100 -16 -89 -34
4 -5 -6 -8 -22 -6 -24 2 -29 7 -26 28 4 36 12 41 87 50 94 12 120 33 120 95 0
41 -4 51 -28 69 -40 29 -103 28 -128 -3 -17 -21 -23 -22 -44 -13 -59 27 -6 92
75 92 25 0 71 -7 100 -16z"/>
<path d="M625 1981 c-84 -21 -125 -68 -125 -144 0 -49 21 -64 68 -48 55 20 63
28 50 56 -21 47 40 76 75 37 24 -26 21 -38 -18 -73 -38 -35 -80 -112 -70 -129
16 -26 63 -3 132 65 53 52 75 102 66 149 -6 30 -65 86 -91 86 -9 0 -26 2 -37
4 -11 3 -33 1 -50 -3z m106 -41 c52 -27 66 -58 48 -102 -23 -59 -149 -166
-149 -128 0 7 25 36 56 66 52 49 56 57 50 86 -8 42 -39 68 -82 68 -55 0 -95
-55 -62 -88 8 -8 4 -14 -17 -24 -24 -11 -29 -10 -41 7 -20 26 -17 48 8 80 43
55 121 69 189 35z"/>
<path d="M2150 1950 c-17 -17 -18 -24 -10 -41 17 -31 41 -35 62 -10 22 28 22
35 2 55 -20 21 -30 20 -54 -4z m40 -36 c0 -16 -16 -19 -25 -4 -8 13 4 32 16
25 5 -4 9 -13 9 -21z"/>
<path d="M650 1629 c-9 -16 -8 -25 6 -40 21 -23 26 -24 54 -1 17 13 21 24 16
40 -10 30 -61 31 -76 1z m60 -13 c0 -15 -24 -28 -34 -19 -13 14 -5 33 14 33
11 0 20 -6 20 -14z"/>
</g>
</svg>
