<?xml version="1.0" standalone="no"?>
<!DOCTYPE svg PUBLIC "-//W3C//DTD SVG 20010904//EN"
 "http://www.w3.org/TR/2001/REC-SVG-20010904/DTD/svg10.dtd">
<svg version="1.0" xmlns="http://www.w3.org/2000/svg"
 width="300.000000pt" height="300.000000pt" viewBox="0 0 300.000000 300.000000"
 preserveAspectRatio="xMidYMid meet">

<g transform="translate(0.000000,300.000000) scale(0.100000,-0.100000)"
fill="#ffffff" stroke="none">
<path d="M1209 2680 c-183 -12 -287 -29 -381 -60 -122 -41 -183 -74 -237 -128
-50 -50 -80 -118 -208 -482 -30 -85 -59 -167 -65 -182 -9 -27 -13 -28 -76 -28
-81 0 -144 -26 -170 -69 -10 -16 -28 -62 -41 -101 l-24 -72 20 -26 c18 -25 27
-27 97 -30 42 -2 76 -7 76 -11 0 -5 -7 -28 -15 -51 -13 -36 -15 -124 -15 -554
0 -469 2 -513 18 -532 32 -41 53 -44 272 -44 291 0 300 6 300 195 l0 105 743
-2 742 -3 3 -113 c3 -125 13 -152 61 -172 19 -7 98 -10 250 -8 l223 3 29 33
29 32 0 493 c0 489 -3 534 -35 610 -6 15 0 17 68 17 112 0 132 29 96 138 -40
124 -77 153 -203 161 l-78 6 -25 70 c-77 218 -194 527 -211 562 -61 118 -234
197 -502 229 -149 17 -578 26 -741 14z m588 -220 c189 -11 324 -31 377 -56 30
-15 44 -37 119 -193 83 -170 183 -439 169 -453 -43 -41 -1338 -49 -1840 -11
l-84 6 7 36 c13 73 86 276 146 404 34 73 67 148 74 167 17 44 58 66 155 81
173 27 585 36 877 19z m-1199 -1131 c59 -23 143 -54 186 -69 88 -29 113 -52
123 -113 9 -56 -14 -83 -83 -97 l-56 -12 -69 46 c-66 44 -72 46 -141 46 -40 0
-100 -5 -133 -10 -48 -8 -63 -7 -82 5 -21 14 -23 23 -23 106 0 82 2 92 25 114
40 41 120 35 253 -16z m2063 22 c21 -17 24 -29 27 -109 4 -81 2 -92 -17 -111
-20 -20 -28 -21 -84 -14 -34 4 -98 8 -143 8 -77 0 -84 -2 -137 -37 -57 -38
-90 -45 -155 -32 -35 7 -72 38 -72 59 0 25 133 155 158 155 12 0 51 12 85 26
180 76 290 94 338 55z"/>
</g>
</svg>
